<svg width="172" height="64" viewBox="0 0 172 64" fill="none" preserveAspectRatio="xMidYMid meet" xmlns="http://www.w3.org/2000/svg">
<g id="Frame">
<path d="M84.1943 9.9385C86.2523 9.9385 88.0046 10.723 89.4513 12.2919C90.9183 13.8608 91.6519 15.766 91.6519 18.0073C91.6519 20.2894 90.9183 22.2047 89.4513 23.7532C88.025 25.3018 86.2727 26.0761 84.1943 26.0761C82.0549 26.0761 80.4044 25.3324 79.243 23.8449V31.7609H75.3003V10.3664H79.243V12.1696C80.4044 10.6822 82.0549 9.9385 84.1943 9.9385ZM80.435 21.1248C81.2297 21.9194 82.2383 22.3168 83.4608 22.3168C84.6833 22.3168 85.6919 21.9194 86.4866 21.1248C87.3016 20.3098 87.7091 19.2706 87.7091 18.0073C87.7091 16.744 87.3016 15.715 86.4866 14.9204C85.6919 14.1053 84.6833 13.6978 83.4608 13.6978C82.2383 13.6978 81.2297 14.1053 80.435 14.9204C79.6404 15.715 79.243 16.744 79.243 18.0073C79.243 19.2706 79.6404 20.3098 80.435 21.1248ZM103.296 18.6186V10.3664H107.239V25.6482H103.296V23.9366C102.359 25.3629 100.841 26.0761 98.7419 26.0761C97.0711 26.0761 95.6855 25.5158 94.5852 24.3951C93.5053 23.254 92.9654 21.7055 92.9654 19.7494V10.3664H96.9081V19.2604C96.9081 20.2588 97.173 21.0331 97.7027 21.5832C98.2529 22.1334 98.9966 22.4085 99.9339 22.4085C100.973 22.4085 101.788 22.0926 102.379 21.461C102.99 20.809 103.296 19.8615 103.296 18.6186ZM113.57 10.3664V12.9949C113.916 12.0372 114.507 11.3139 115.342 10.8248C116.178 10.3155 117.136 10.0608 118.215 10.0608V14.4619C117.013 14.2989 115.933 14.5434 114.976 15.1954C114.038 15.8271 113.57 16.8764 113.57 18.3435V25.6482H109.627V10.3664H113.57ZM128.193 9.9385C130.251 9.9385 132.003 10.723 133.45 12.2919C134.917 13.8608 135.65 15.766 135.65 18.0073C135.65 20.2894 134.917 22.2047 133.45 23.7532C132.023 25.3018 130.271 26.0761 128.193 26.0761C126.053 26.0761 124.403 25.3324 123.241 23.8449V31.7609H119.299V10.3664H123.241V12.1696C124.403 10.6822 126.053 9.9385 128.193 9.9385ZM124.433 21.1248C125.228 21.9194 126.237 22.3168 127.459 22.3168C128.682 22.3168 129.69 21.9194 130.485 21.1248C131.3 20.3098 131.708 19.2706 131.708 18.0073C131.708 16.744 131.3 15.715 130.485 14.9204C129.69 14.1053 128.682 13.6978 127.459 13.6978C126.237 13.6978 125.228 14.1053 124.433 14.9204C123.639 15.715 123.241 16.744 123.241 18.0073C123.241 19.2706 123.639 20.3098 124.433 21.1248ZM141.151 25.6482H137.208V3.33676H141.151V25.6482ZM158.391 19.6272H146.869C147.378 21.5425 148.814 22.5001 151.178 22.5001C152.686 22.5001 153.827 21.9907 154.601 20.972L157.78 22.8058C156.272 24.986 154.051 26.0761 151.117 26.0761C148.59 26.0761 146.563 25.312 145.035 23.7838C143.507 22.2556 142.742 20.3301 142.742 18.0073C142.742 15.7252 143.496 13.8099 145.004 12.2613C146.492 10.7128 148.427 9.9385 150.811 9.9385C153.073 9.9385 154.917 10.7128 156.343 12.2613C157.81 13.8099 158.544 15.7252 158.544 18.0073C158.544 18.4352 158.493 18.9751 158.391 19.6272ZM146.807 16.5708H154.601C154.377 15.5724 153.919 14.8083 153.226 14.2785C152.553 13.7488 151.749 13.4839 150.811 13.4839C149.752 13.4839 148.876 13.759 148.183 14.3091C147.49 14.8389 147.032 15.5928 146.807 16.5708ZM84.1943 38.9385C86.2523 38.9385 88.0046 39.723 89.4513 41.2919C90.9183 42.8608 91.6519 44.766 91.6519 47.0073C91.6519 49.2894 90.9183 51.2047 89.4513 52.7532C88.025 54.3018 86.2727 55.0761 84.1943 55.0761C82.0549 55.0761 80.4044 54.3324 79.243 52.8449V54.6482H75.3003V33.2537H79.243V41.1696C80.4044 39.6822 82.0549 38.9385 84.1943 38.9385ZM80.435 50.1248C81.2297 50.9194 82.2383 51.3168 83.4608 51.3168C84.6833 51.3168 85.6919 50.9194 86.4866 50.1248C87.3016 49.3098 87.7091 48.2706 87.7091 47.0073C87.7091 45.744 87.3016 44.715 86.4866 43.9204C85.6919 43.1053 84.6833 42.6978 83.4608 42.6978C82.2383 42.6978 81.2297 43.1053 80.435 43.9204C79.6404 44.715 79.243 45.744 79.243 47.0073C79.243 48.2706 79.6404 49.3098 80.435 50.1248ZM103.296 47.6186V39.3664H107.239V54.6482H103.296V52.9366C102.359 54.3629 100.841 55.0761 98.7419 55.0761C97.0711 55.0761 95.6855 54.5158 94.5852 53.3951C93.5053 52.254 92.9654 50.7055 92.9654 48.7494V39.3664H96.9081V48.2604C96.9081 49.2588 97.173 50.0331 97.7027 50.5832C98.2529 51.1334 98.9966 51.4085 99.9339 51.4085C100.973 51.4085 101.788 51.0926 102.379 50.461C102.99 49.809 103.296 48.8615 103.296 47.6186ZM111.583 37.5326C110.931 37.5326 110.361 37.2983 109.872 36.8296C109.403 36.3406 109.169 35.7701 109.169 35.118C109.169 34.466 109.403 33.8955 109.872 33.4065C110.361 32.9175 110.931 32.673 111.583 32.673C112.256 32.673 112.826 32.9175 113.295 33.4065C113.784 33.8955 114.028 34.466 114.028 35.118C114.028 35.7701 113.784 36.3406 113.295 36.8296C112.826 37.2983 112.256 37.5326 111.583 37.5326ZM113.57 54.6482H109.627V39.3664H113.57V54.6482ZM119.899 54.6482H115.956V32.3368H119.899V54.6482ZM133.868 41.1696V33.2537H137.811V54.6482H133.868V52.8449C132.707 54.3324 131.056 55.0761 128.917 55.0761C126.859 55.0761 125.097 54.3018 123.629 52.7532C122.183 51.1843 121.459 49.269 121.459 47.0073C121.459 44.766 122.183 42.8608 123.629 41.2919C125.097 39.723 126.859 38.9385 128.917 38.9385C131.056 38.9385 132.707 39.6822 133.868 41.1696ZM126.594 50.1248C127.43 50.9194 128.448 51.3168 129.651 51.3168C130.873 51.3168 131.882 50.9194 132.676 50.1248C133.471 49.3098 133.868 48.2706 133.868 47.0073C133.868 45.744 133.471 44.715 132.676 43.9204C131.882 43.1053 130.873 42.6978 129.651 42.6978C128.428 42.6978 127.409 43.1053 126.594 43.9204C125.8 44.715 125.402 45.744 125.402 47.0073C125.402 48.2706 125.8 49.3098 126.594 50.1248ZM155.048 48.6272H143.526C144.035 50.5425 145.472 51.5001 147.835 51.5001C149.343 51.5001 150.484 50.9907 151.258 49.972L154.437 51.8058C152.929 53.986 150.708 55.0761 147.774 55.0761C145.247 55.0761 143.22 54.312 141.692 52.7838C140.164 51.2556 139.4 49.3301 139.4 47.0073C139.4 44.7252 140.154 42.8099 141.661 41.2613C143.149 39.7128 145.084 38.9385 147.468 38.9385C149.73 38.9385 151.574 39.7128 153 41.2613C154.467 42.8099 155.201 44.7252 155.201 47.0073C155.201 47.4352 155.15 47.9751 155.048 48.6272ZM143.465 45.5708H151.258C151.034 44.5724 150.576 43.8083 149.883 43.2785C149.211 42.7488 148.406 42.4839 147.468 42.4839C146.409 42.4839 145.533 42.759 144.84 43.3091C144.147 43.8389 143.689 44.5928 143.465 45.5708ZM160.674 39.3664V41.9949C161.02 41.0372 161.611 40.3139 162.446 39.8248C163.282 39.3155 164.239 39.0608 165.319 39.0608V43.4619C164.117 43.2989 163.037 43.5434 162.079 44.1954C161.142 44.8271 160.674 45.8764 160.674 47.3435V54.6482H156.731V39.3664H160.674ZM169.114 52.4476C169.114 53.1608 168.859 53.772 168.35 54.2814C167.84 54.7908 167.229 55.0455 166.516 55.0455C165.803 55.0455 165.192 54.7908 164.682 54.2814C164.173 53.772 163.918 53.1608 163.918 52.4476C163.918 51.7345 164.173 51.1232 164.682 50.6138C165.192 50.1044 165.803 49.8497 166.516 49.8497C167.229 49.8497 167.84 50.1044 168.35 50.6138C168.859 51.1232 169.114 51.7345 169.114 52.4476Z" fill="#3B3B3B"/>
<path d="M42.6878 2.03275H20.3275C10.2236 2.03275 2.03275 10.2236 2.03275 20.3275V42.6878C2.03275 52.7916 10.2236 60.9824 20.3275 60.9824H42.6878C52.7916 60.9824 60.9824 52.7916 60.9824 42.6878V20.3275C60.9824 10.2236 52.7916 2.03275 42.6878 2.03275Z" fill="#3B3B3B" stroke="#3B3B3B" stroke-width="4.0655"/>
<path d="M14.3271 19.1343H48.2466" stroke="white" stroke-width="2.29475"/>
<path d="M39.9102 31.792H22.6597" stroke="white" stroke-width="2.29475"/>
<path d="M14.3994 19.0659L31.3233 44.1649" stroke="white" stroke-width="2.29475"/>
<path d="M39.873 31.8313L31.266 19.0667" stroke="white" stroke-width="2.29475"/>
<path d="M48.2471 19.0659L31.3232 44.1649" stroke="white" stroke-width="2.29475"/>
<path d="M22.6611 31.8313L31.2681 19.0667" stroke="white" stroke-width="2.29475"/>
<path d="M48.2469 21.361C49.5143 21.361 50.5417 20.3336 50.5417 19.0662C50.5417 17.7988 49.5143 16.7714 48.2469 16.7714C46.9795 16.7714 45.9521 17.7988 45.9521 19.0662C45.9521 20.3336 46.9795 21.361 48.2469 21.361Z" fill="white" stroke="white" stroke-width="1.11168"/>
<path d="M31.3211 21.361C32.5885 21.361 33.6159 20.3336 33.6159 19.0662C33.6159 17.7988 32.5885 16.7714 31.3211 16.7714C30.0537 16.7714 29.0263 17.7988 29.0263 19.0662C29.0263 20.3336 30.0537 21.361 31.3211 21.361Z" fill="white" stroke="white" stroke-width="1.11168"/>
<path d="M31.3211 46.4592C32.5885 46.4592 33.6159 45.4318 33.6159 44.1644C33.6159 42.897 32.5885 41.8696 31.3211 41.8696C30.0537 41.8696 29.0263 42.897 29.0263 44.1644C29.0263 45.4318 30.0537 46.4592 31.3211 46.4592Z" fill="white" stroke="white" stroke-width="1.11168"/>
<path d="M14.3983 21.361C15.6657 21.361 16.6931 20.3336 16.6931 19.0662C16.6931 17.7988 15.6657 16.7714 14.3983 16.7714C13.1309 16.7714 12.1035 17.7988 12.1035 19.0662C12.1035 20.3336 13.1309 21.361 14.3983 21.361Z" fill="white" stroke="white" stroke-width="1.11168"/>
<path d="M22.8612 33.698C24.1286 33.698 25.156 32.6706 25.156 31.4032C25.156 30.1358 24.1286 29.1084 22.8612 29.1084C21.5938 29.1084 20.5664 30.1358 20.5664 31.4032C20.5664 32.6706 21.5938 33.698 22.8612 33.698Z" fill="white" stroke="white" stroke-width="1.11168"/>
<path d="M39.784 33.698C41.0514 33.698 42.0788 32.6706 42.0788 31.4032C42.0788 30.1358 41.0514 29.1084 39.784 29.1084C38.5166 29.1084 37.4892 30.1358 37.4892 31.4032C37.4892 32.6706 38.5166 33.698 39.784 33.698Z" fill="white" stroke="white" stroke-width="1.11168"/>
</g>
</svg>
